<svg aria-hidden="true" style="width:0;height:0;position:absolute;overflow:hidden" xmlns="http://www.w3.org/2000/svg"><defs><symbol id="icon-facebook" viewBox="0 0 32 32"><path d="M16 .64C7.517.64.64 7.517.64 16S7.517 31.36 16 31.36 31.36 24.483 31.36 16 24.483.64 16 .64zm3.638 10.614h-2.309c-.274 0-.578.36-.578.838v1.667h2.888l-.437 2.378h-2.451v7.138h-2.725v-7.138h-2.472v-2.378h2.472v-1.398c0-2.006 1.392-3.637 3.302-3.637h2.309v2.53z"/></symbol><symbol id="icon-instagram" viewBox="0 0 32 32"><path d="M20.8 16a4.8 4.8 0 0 1-9.6 0c0-.274.029-.541.078-.8H9.6v6.395c0 .445.36.805.805.805h11.192a.803.803 0 0 0 .803-.804v-6.395h-1.678c.05.259.078.526.078.8zM16 19.2a3.199 3.199 0 0 0 2.956-4.427 3.207 3.207 0 0 0-2.958-1.975A3.201 3.201 0 1 0 16 19.2zm3.84-6.56h1.918a.481.481 0 0 0 .482-.48v-1.918a.485.485 0 0 0-.482-.482H19.84a.485.485 0 0 0-.482.482v1.918c.002.264.218.48.482.48zM16 .64A15.356 15.356 0 0 0 .64 16 15.356 15.356 0 0 0 16 31.36 15.36 15.36 0 1 0 16 .64zm8 21.582C24 23.2 23.2 24 22.222 24H9.777c-.978 0-1.778-.8-1.778-1.778V9.777c0-.978.8-1.778 1.778-1.778h12.445c.978 0 1.778.8 1.778 1.778v12.445z"/></symbol><symbol id="icon-pinterest" viewBox="0 0 32 32"><path d="M16 .64C7.517.64.64 7.517.64 16S7.517 31.36 16 31.36 31.36 24.483 31.36 16 24.483.64 16 .64zm1.051 19c-.986-.075-1.398-.563-2.17-1.03-.424 2.226-.942 4.36-2.478 5.475-.475-3.366.694-5.891 1.238-8.574-.926-1.56.11-4.698 2.066-3.926 2.405.954-2.083 5.8.93 6.406 3.146.63 4.43-5.459 2.48-7.437-2.819-2.859-8.203-.066-7.541 4.027.16 1 1.195 1.304.413 2.685-1.803-.4-2.342-1.822-2.272-3.718.11-3.104 2.789-5.278 5.474-5.578 3.397-.378 6.584 1.246 7.026 4.443.494 3.606-1.534 7.509-5.165 7.227z"/></symbol><symbol id="icon-twitter" viewBox="0 0 32 32"><path d="M16 .64C7.517.64.64 7.517.64 16S7.517 31.36 16 31.36 31.36 24.483 31.36 16 24.483.64 16 .64zm6.248 12.582c.006.131.008.262.008.39 0 4-3.042 8.61-8.606 8.61a8.54 8.54 0 0 1-4.637-1.36c.235.029.477.04.722.04a6.063 6.063 0 0 0 3.757-1.294 3.027 3.027 0 0 1-2.826-2.1c.453.086.92.068 1.365-.053a3.024 3.024 0 0 1-2.427-2.966v-.037c.408.226.875.363 1.371.379a3.023 3.023 0 0 1-.936-4.042 8.612 8.612 0 0 0 6.236 3.164 3.026 3.026 0 0 1 5.155-2.76 6.081 6.081 0 0 0 1.92-.734 3.04 3.04 0 0 1-1.33 1.675 6.075 6.075 0 0 0 1.738-.478 6.14 6.14 0 0 1-1.509 1.566z"/></symbol><symbol id="icon-youtube" viewBox="0 0 32 32"><path d="m18.565 15.733-3.594-1.677c-.314-.146-.571.018-.571.365v3.158c0 .347.258.51.571.365l3.592-1.677c.315-.147.315-.387.002-.534zM16 .64C7.517.64.64 7.517.64 16S7.517 31.36 16 31.36 31.36 24.483 31.36 16 24.483.64 16 .64zm0 21.6c-7.862 0-8-.709-8-6.24s.138-6.24 8-6.24 8 .709 8 6.24-.138 6.24-8 6.24z"/></symbol><symbol id="icon-copyright" viewBox="0 0 273 32"><path d="M27.284 25.263c2.892-2.892 4.317-6.353 4.317-10.426s-1.425-7.535-4.317-10.426C24.392 1.519 20.931.094 16.858.094S9.323 1.519 6.432 4.411C3.54 7.303 2.115 10.764 2.115 14.837s1.425 7.535 4.317 10.426c2.892 2.892 6.353 4.317 10.426 4.317s7.535-1.425 10.426-4.317zm-19.997-.774c-2.647-2.647-3.951-5.865-3.951-9.652s1.303-6.964 3.951-9.612c2.647-2.647 5.865-3.991 9.571-3.991s6.883 1.344 9.53 3.991c2.647 2.647 3.991 5.824 3.991 9.612s-1.344 7.005-3.991 9.652c-2.647 2.647-5.824 3.951-9.53 3.951s-6.924-1.303-9.571-3.951zm9.693-1.833c2.892 0 5.417-1.466 6.72-3.788l-2.24-1.344c-.774 1.67-2.525 2.607-4.48 2.607-1.588 0-2.851-.529-3.828-1.548-.937-1.059-1.425-2.321-1.425-3.747s.489-2.688 1.425-3.706c.977-1.059 2.24-1.588 3.828-1.588 1.914 0 3.665.896 4.439 2.566l2.24-1.303c-1.303-2.321-3.788-3.788-6.679-3.788-2.24 0-4.113.774-5.62 2.281s-2.281 3.38-2.281 5.539.774 4.032 2.281 5.539 3.38 2.281 5.62 2.281zm46.173 6.435v-2.769H49.102l8.145-8.105c3.38-3.38 5.295-6.272 5.295-9.571 0-2.647-.855-4.724-2.607-6.231C58.224.867 56.229.094 53.948.094c-3.747 0-7.005 1.833-8.797 5.376l2.403 1.425c1.344-2.688 3.462-4.032 6.394-4.032 3.136 0 5.743 2.159 5.743 5.783 0 2.077-1.466 4.602-4.399 7.535L45.029 26.526v2.566h18.124zm22.018-3.503c1.914-2.688 2.851-6.272 2.851-10.752s-.937-8.064-2.851-10.711C83.298 1.437 80.65.093 77.229.093s-6.068 1.344-7.983 4.032c-1.873 2.647-2.81 6.231-2.81 10.711s.937 8.064 2.81 10.752c1.914 2.647 4.561 3.991 7.983 3.991s6.068-1.344 7.942-3.991zm-13.806-1.914c-1.385-2.077-2.077-5.05-2.077-8.838s.692-6.761 2.077-8.838c1.425-2.077 3.38-3.136 5.865-3.136s4.439 1.059 5.824 3.136c1.425 2.077 2.118 5.05 2.118 8.838s-.692 6.761-2.118 8.838c-1.385 2.077-3.34 3.136-5.824 3.136s-4.439-1.059-5.865-3.136zM89.869 3.188l.733 2.444 6.394-1.914v25.373h2.851V.582h-2.444l-7.535 2.607zm34.001 22.4c1.914-2.688 2.851-6.272 2.851-10.752s-.937-8.064-2.851-10.711c-1.873-2.688-4.521-4.032-7.942-4.032s-6.068 1.344-7.983 4.032c-1.873 2.647-2.81 6.231-2.81 10.711s.937 8.064 2.81 10.752c1.914 2.647 4.561 3.991 7.983 3.991s6.068-1.344 7.942-3.991zm-13.806-1.914c-1.385-2.077-2.077-5.05-2.077-8.838s.692-6.761 2.077-8.838c1.425-2.077 3.38-3.136 5.865-3.136s4.439 1.059 5.824 3.136c1.425 2.077 2.118 5.05 2.118 8.838s-.692 6.761-2.118 8.838c-1.385 2.077-3.34 3.136-5.824 3.136s-4.439-1.059-5.865-3.136zm56.565-5.865v-2.607h-24.436v2.607h24.436zm33.183 11.282v-2.769h-14.051l8.145-8.105c3.38-3.38 5.295-6.272 5.295-9.571 0-2.647-.855-4.724-2.607-6.231-1.711-1.548-3.706-2.321-5.987-2.321-3.747 0-7.005 1.833-8.797 5.376l2.403 1.425c1.344-2.688 3.462-4.032 6.394-4.032 3.136 0 5.743 2.159 5.743 5.783 0 2.077-1.466 4.602-4.399 7.535l-10.263 10.345v2.566h18.124zm22.019-3.503c1.914-2.688 2.851-6.272 2.851-10.752s-.937-8.064-2.851-10.711c-1.873-2.688-4.521-4.032-7.942-4.032s-6.068 1.344-7.983 4.032c-1.873 2.647-2.81 6.231-2.81 10.711s.937 8.064 2.81 10.752c1.914 2.647 4.561 3.991 7.983 3.991s6.068-1.344 7.942-3.991zm-13.807-1.914c-1.385-2.077-2.077-5.05-2.077-8.838s.692-6.761 2.077-8.838c1.425-2.077 3.38-3.136 5.865-3.136s4.439 1.059 5.824 3.136c1.425 2.077 2.118 5.05 2.118 8.838s-.692 6.761-2.118 8.838c-1.385 2.077-3.34 3.136-5.824 3.136s-4.439-1.059-5.865-3.136zm38.044 5.417v-2.769h-14.051l8.145-8.105c3.38-3.38 5.295-6.272 5.295-9.571 0-2.647-.855-4.724-2.607-6.231-1.711-1.548-3.706-2.321-5.987-2.321-3.747 0-7.005 1.833-8.797 5.376l2.403 1.425c1.344-2.688 3.462-4.032 6.394-4.032 3.136 0 5.743 2.159 5.743 5.783 0 2.077-1.466 4.602-4.399 7.535l-10.263 10.345v2.566h18.124zm22.018-3.503c1.914-2.688 2.851-6.272 2.851-10.752S270 6.772 268.086 4.125c-1.873-2.688-4.521-4.032-7.942-4.032s-6.068 1.344-7.983 4.032c-1.873 2.647-2.81 6.231-2.81 10.711s.937 8.064 2.81 10.752c1.914 2.647 4.561 3.991 7.983 3.991s6.068-1.344 7.942-3.991zm-13.806-1.914c-1.385-2.077-2.077-5.05-2.077-8.838s.692-6.761 2.077-8.838c1.425-2.077 3.38-3.136 5.865-3.136s4.439 1.059 5.824 3.136c1.425 2.077 2.118 5.05 2.118 8.838s-.692 6.761-2.118 8.838c-1.385 2.077-3.34 3.136-5.824 3.136s-4.439-1.059-5.865-3.136z"/></symbol><symbol id="icon-link" viewBox="0 0 246 32"><path d="M.572.492v24.123h2.412v-8.96h6.203c2.171 0 3.963-.724 5.41-2.171s2.171-3.239 2.171-5.41-.724-3.963-2.171-5.41C13.15 1.217 11.358.493 9.187.493H.572zm2.412 12.889V2.767h6.203c1.482 0 2.722.517 3.687 1.516.999.999 1.482 2.24 1.482 3.791s-.482 2.826-1.482 3.825c-.965.999-2.206 1.482-3.687 1.482H2.984zm19.508-5.996h-2.274v17.231h2.274v-9.58c0-3.963 2.309-5.721 5.445-5.721V7.109c-2.585 0-4.377 1.034-5.445 3.136v-2.86zm10.871-4.136c.655-.655.655-1.689 0-2.343s-1.689-.655-2.343 0c-.655.655-.655 1.689 0 2.343s1.689.655 2.343 0zm-.035 21.366V7.384h-2.274v17.231h2.274zm11.202-2.377L38.499 7.385h-2.412l7.065 17.231h2.757l7.065-17.231h-2.412l-6.031 14.853zm25.338-11.476c-1.585-2.516-3.894-3.791-6.961-3.791-2.447 0-4.549.862-6.306 2.619-1.723 1.758-2.585 3.894-2.585 6.41s.862 4.652 2.585 6.41c1.758 1.758 3.86 2.619 6.306 2.619 3.067 0 5.376-1.275 6.961-3.791v3.377h2.274V7.384h-2.274v3.377zM58.254 20.859c-1.31-1.344-1.964-2.964-1.964-4.859s.655-3.515 1.964-4.825c1.31-1.344 2.929-1.999 4.825-1.999s3.515.655 4.825 1.999c1.31 1.31 1.964 2.929 1.964 4.825s-.655 3.515-1.964 4.859c-1.31 1.31-2.929 1.964-4.825 1.964s-3.515-.655-4.825-1.964zm26.734 4.17c3.343 0 6.306-1.723 7.719-4.48l-1.895-1.103c-1.137 2.068-3.239 3.377-5.824 3.377-1.895 0-3.515-.655-4.825-1.964-1.31-1.344-1.964-2.964-1.964-4.859s.655-3.515 1.964-4.825c1.31-1.344 2.929-1.999 4.825-1.999 2.585 0 4.756 1.31 5.686 3.377l1.861-1.068c-1.241-2.757-4.135-4.514-7.547-4.514-2.585 0-4.756.862-6.479 2.619-1.723 1.723-2.585 3.86-2.585 6.41s.862 4.687 2.585 6.444c1.723 1.723 3.894 2.585 6.479 2.585zm17.808-3.205L96.317 7.385h-2.412l7.719 17.334-.448 1.068c-1.068 2.619-2.654 3.825-4.721 3.584v2.137c3.033.241 5.617-1.895 6.961-5.307l7.375-18.816h-2.412l-5.583 14.439zm40.381-6.754v-2.206H122.5v2.206h20.677zM155.23.492v2.274h7.409v21.849h2.412V2.766h7.409V.492h-17.231zm25.198 6.479c-2.654 0-4.79.862-6.479 2.585s-2.516 3.86-2.516 6.444c0 2.619.862 4.79 2.55 6.479s3.894 2.55 6.617 2.55c3.343 0 6.065-1.516 7.582-3.963l-1.999-1.172c-.965 1.758-2.929 2.929-5.548 2.929-3.687 0-6.41-2.206-6.858-5.686h15.129c.034-.448.069-.827.069-1.068 0-2.447-.793-4.583-2.378-6.375-1.551-1.826-3.618-2.722-6.169-2.722zm0 2.206c1.551 0 2.929.517 4.101 1.516s1.861 2.412 2.102 4.239h-12.854c.448-3.412 3.067-5.755 6.651-5.755zm14.439-1.792h-2.274v17.231h2.274v-9.58c0-3.963 2.309-5.721 5.445-5.721V7.109c-2.585 0-4.377 1.034-5.445 3.136v-2.86zm26.93-.414c-2.481 0-4.342 1.034-5.583 3.136-.999-2.102-2.757-3.136-5.238-3.136-2.274 0-4.032.965-5.273 2.929V7.384h-2.274v17.231h2.274v-9.546c0-3.998 2.206-5.893 4.962-5.893 2.481 0 4.032 1.654 4.032 4.687v10.752h2.274v-9.546c0-4.032 1.93-5.893 4.79-5.893 2.516 0 4.204 1.689 4.204 4.687v10.752h2.274V13.863c0-4.239-2.585-6.892-6.444-6.892zm12.636 4.928c0-1.758 1.654-2.722 3.618-2.722 2.102 0 3.481.793 4.135 2.412l1.895-1.103c-.999-2.171-3.239-3.515-6.031-3.515-1.689 0-3.102.482-4.239 1.413-1.103.93-1.654 2.102-1.654 3.515 0 3.722 3.618 4.514 6.513 5.238 1.964.517 3.55 1.378 3.55 2.929 0 1.895-1.723 2.757-3.963 2.757-2.309 0-4.066-1.103-4.721-2.895l-1.93 1.137c.93 2.343 3.343 3.963 6.651 3.963 1.826 0 3.343-.448 4.48-1.378 1.172-.93 1.758-2.102 1.758-3.584 0-3.722-3.618-4.514-6.513-5.238-1.964-.517-3.55-1.378-3.55-2.929z"/></symbol></defs></svg>