<svg aria-hidden="true" style="position: absolute; width: 0; height: 0; overflow: hidden;" version="1.1" xmlns="http://www.w3.org/2000/svg" xmlns:xlink="http://www.w3.org/1999/xlink">
<defs>
<symbol id="icon-facebook" viewBox="0 0 32 32">
<path d="M16 0.64c-8.483 0-15.36 6.877-15.36 15.36s6.877 15.36 15.36 15.36c8.483 0 15.36-6.877 15.36-15.36s-6.877-15.36-15.36-15.36zM19.638 11.254h-2.309c-0.274 0-0.578 0.36-0.578 0.838v1.667h2.888l-0.437 2.378h-2.451v7.138h-2.725v-7.138h-2.472v-2.378h2.472v-1.398c0-2.006 1.392-3.637 3.302-3.637h2.309v2.53z"></path>
</symbol>
<symbol id="icon-instagram" viewBox="0 0 32 32">
<path d="M20.8 16c0 1.273-0.506 2.494-1.406 3.394s-2.121 1.406-3.394 1.406-2.494-0.506-3.394-1.406c-0.9-0.9-1.406-2.121-1.406-3.394 0-0.274 0.029-0.541 0.078-0.8h-1.678v6.395c0 0.445 0.36 0.805 0.805 0.805h11.192c0.213-0 0.417-0.085 0.568-0.236s0.235-0.355 0.235-0.568v-6.395h-1.678c0.050 0.259 0.078 0.526 0.078 0.8zM16 19.2c0.42-0 0.837-0.083 1.225-0.244s0.741-0.397 1.038-0.694c0.297-0.297 0.533-0.65 0.694-1.039s0.243-0.805 0.243-1.225-0.083-0.837-0.244-1.225c-0.161-0.388-0.397-0.741-0.694-1.038s-0.65-0.533-1.039-0.694c-0.388-0.161-0.805-0.243-1.225-0.243-0.849 0-1.663 0.338-2.263 0.938s-0.937 1.415-0.937 2.264 0.338 1.663 0.938 2.263c0.6 0.6 1.415 0.937 2.264 0.937zM19.84 12.64h1.918c0.127 0 0.25-0.050 0.34-0.14s0.141-0.212 0.142-0.34v-1.918c0-0.128-0.051-0.25-0.141-0.341s-0.213-0.141-0.341-0.141h-1.918c-0.128 0-0.25 0.051-0.341 0.141s-0.141 0.213-0.141 0.341v1.918c0.002 0.264 0.218 0.48 0.482 0.48zM16 0.64c-4.074 0-7.981 1.618-10.861 4.499s-4.499 6.787-4.499 10.861 1.618 7.981 4.499 10.861c2.881 2.881 6.787 4.499 10.861 4.499 2.017 0 4.014-0.397 5.878-1.169s3.557-1.903 4.983-3.33c1.426-1.426 2.558-3.12 3.33-4.983s1.169-3.861 1.169-5.878-0.397-4.014-1.169-5.878c-0.772-1.864-1.903-3.557-3.33-4.983s-3.12-2.558-4.983-3.33c-1.864-0.772-3.861-1.169-5.878-1.169zM24 22.222c0 0.978-0.8 1.778-1.778 1.778h-12.445c-0.978 0-1.778-0.8-1.778-1.778v-12.445c0-0.978 0.8-1.778 1.778-1.778h12.445c0.978 0 1.778 0.8 1.778 1.778v12.445z"></path>
</symbol>
<symbol id="icon-pinterest" viewBox="0 0 32 32">
<path d="M16 0.64c-8.483 0-15.36 6.877-15.36 15.36s6.877 15.36 15.36 15.36c8.483 0 15.36-6.877 15.36-15.36s-6.877-15.36-15.36-15.36zM17.051 19.64c-0.986-0.075-1.398-0.563-2.17-1.030-0.424 2.226-0.942 4.36-2.478 5.475-0.475-3.366 0.694-5.891 1.238-8.574-0.926-1.56 0.11-4.698 2.066-3.926 2.405 0.954-2.083 5.8 0.93 6.406 3.146 0.63 4.43-5.459 2.48-7.437-2.819-2.859-8.203-0.066-7.541 4.027 0.16 1 1.195 1.304 0.413 2.685-1.803-0.4-2.342-1.822-2.272-3.718 0.11-3.104 2.789-5.278 5.474-5.578 3.397-0.378 6.584 1.246 7.026 4.443 0.494 3.606-1.534 7.509-5.165 7.227z"></path>
</symbol>
<symbol id="icon-twitter" viewBox="0 0 32 32">
<path d="M16 0.64c-8.483 0-15.36 6.877-15.36 15.36s6.877 15.36 15.36 15.36c8.483 0 15.36-6.877 15.36-15.36s-6.877-15.36-15.36-15.36zM22.248 13.222c0.006 0.131 0.008 0.262 0.008 0.39 0 4-3.042 8.61-8.606 8.61-1.644 0.003-3.254-0.47-4.637-1.36 0.235 0.029 0.477 0.040 0.722 0.040 1.418 0 2.722-0.482 3.757-1.294-0.631-0.012-1.242-0.221-1.749-0.598s-0.883-0.901-1.077-1.502c0.453 0.086 0.92 0.068 1.365-0.053-0.685-0.138-1.3-0.509-1.743-1.050s-0.684-1.218-0.684-1.916v-0.037c0.408 0.226 0.875 0.363 1.371 0.379-0.642-0.427-1.096-1.084-1.27-1.835s-0.054-1.541 0.334-2.207c0.76 0.934 1.708 1.699 2.782 2.244s2.251 0.858 3.454 0.92c-0.153-0.649-0.087-1.331 0.187-1.938s0.742-1.108 1.33-1.423c0.588-0.315 1.263-0.426 1.921-0.318s1.262 0.432 1.717 0.919c0.677-0.134 1.326-0.382 1.92-0.734-0.226 0.701-0.698 1.296-1.33 1.675 0.6-0.072 1.185-0.233 1.738-0.478-0.406 0.608-0.917 1.138-1.509 1.566z"></path>
</symbol>
<symbol id="icon-youtube" viewBox="0 0 32 32">
<path d="M18.565 15.733l-3.594-1.677c-0.314-0.146-0.571 0.018-0.571 0.365v3.158c0 0.347 0.258 0.51 0.571 0.365l3.592-1.677c0.315-0.147 0.315-0.387 0.002-0.534zM16 0.64c-8.483 0-15.36 6.877-15.36 15.36s6.877 15.36 15.36 15.36c8.483 0 15.36-6.877 15.36-15.36s-6.877-15.36-15.36-15.36zM16 22.24c-7.862 0-8-0.709-8-6.24s0.138-6.24 8-6.24c7.862 0 8 0.709 8 6.24s-0.138 6.24-8 6.24z"></path>
</symbol>
<symbol id="icon-copyright" viewBox="0 0 273 32">
<path d="M27.284 25.263c2.892-2.892 4.317-6.353 4.317-10.426s-1.425-7.535-4.317-10.426c-2.892-2.892-6.353-4.317-10.426-4.317s-7.535 1.425-10.426 4.317c-2.892 2.892-4.317 6.353-4.317 10.426s1.425 7.535 4.317 10.426c2.892 2.892 6.353 4.317 10.426 4.317s7.535-1.425 10.426-4.317zM7.287 24.489c-2.647-2.647-3.951-5.865-3.951-9.652s1.303-6.964 3.951-9.612c2.647-2.647 5.865-3.991 9.571-3.991s6.883 1.344 9.53 3.991c2.647 2.647 3.991 5.824 3.991 9.612s-1.344 7.005-3.991 9.652c-2.647 2.647-5.824 3.951-9.53 3.951s-6.924-1.303-9.571-3.951zM16.98 22.656c2.892 0 5.417-1.466 6.72-3.788l-2.24-1.344c-0.774 1.67-2.525 2.607-4.48 2.607-1.588 0-2.851-0.529-3.828-1.548-0.937-1.059-1.425-2.321-1.425-3.747s0.489-2.688 1.425-3.706c0.977-1.059 2.24-1.588 3.828-1.588 1.914 0 3.665 0.896 4.439 2.566l2.24-1.303c-1.303-2.321-3.788-3.788-6.679-3.788-2.24 0-4.113 0.774-5.62 2.281s-2.281 3.38-2.281 5.539c0 2.159 0.774 4.032 2.281 5.539s3.38 2.281 5.62 2.281zM63.153 29.091v-2.769h-14.051l8.145-8.105c3.38-3.38 5.295-6.272 5.295-9.571 0-2.647-0.855-4.724-2.607-6.231-1.711-1.548-3.706-2.321-5.987-2.321-3.747 0-7.005 1.833-8.797 5.376l2.403 1.425c1.344-2.688 3.462-4.032 6.394-4.032 3.136 0 5.743 2.159 5.743 5.783 0 2.077-1.466 4.602-4.399 7.535l-10.263 10.345v2.566h18.124zM85.171 25.588c1.914-2.688 2.851-6.272 2.851-10.752s-0.937-8.064-2.851-10.711c-1.873-2.688-4.521-4.032-7.942-4.032s-6.068 1.344-7.983 4.032c-1.873 2.647-2.81 6.231-2.81 10.711s0.937 8.064 2.81 10.752c1.914 2.647 4.561 3.991 7.983 3.991s6.068-1.344 7.942-3.991zM71.365 23.674c-1.385-2.077-2.077-5.050-2.077-8.838s0.692-6.761 2.077-8.838c1.425-2.077 3.38-3.136 5.865-3.136s4.439 1.059 5.824 3.136c1.425 2.077 2.118 5.050 2.118 8.838s-0.692 6.761-2.118 8.838c-1.385 2.077-3.34 3.136-5.824 3.136s-4.439-1.059-5.865-3.136zM89.869 3.188l0.733 2.444 6.394-1.914v25.373h2.851v-28.509h-2.444l-7.535 2.607zM123.87 25.588c1.914-2.688 2.851-6.272 2.851-10.752s-0.937-8.064-2.851-10.711c-1.873-2.688-4.521-4.032-7.942-4.032s-6.068 1.344-7.983 4.032c-1.873 2.647-2.81 6.231-2.81 10.711s0.937 8.064 2.81 10.752c1.914 2.647 4.561 3.991 7.983 3.991s6.068-1.344 7.942-3.991zM110.064 23.674c-1.385-2.077-2.077-5.050-2.077-8.838s0.692-6.761 2.077-8.838c1.425-2.077 3.38-3.136 5.865-3.136s4.439 1.059 5.824 3.136c1.425 2.077 2.118 5.050 2.118 8.838s-0.692 6.761-2.118 8.838c-1.385 2.077-3.34 3.136-5.824 3.136s-4.439-1.059-5.865-3.136zM166.629 17.809v-2.607h-24.436v2.607h24.436zM199.812 29.091v-2.769h-14.051l8.145-8.105c3.38-3.38 5.295-6.272 5.295-9.571 0-2.647-0.855-4.724-2.607-6.231-1.711-1.548-3.706-2.321-5.987-2.321-3.747 0-7.005 1.833-8.797 5.376l2.403 1.425c1.344-2.688 3.462-4.032 6.394-4.032 3.136 0 5.743 2.159 5.743 5.783 0 2.077-1.466 4.602-4.399 7.535l-10.263 10.345v2.566h18.124zM221.831 25.588c1.914-2.688 2.851-6.272 2.851-10.752s-0.937-8.064-2.851-10.711c-1.873-2.688-4.521-4.032-7.942-4.032s-6.068 1.344-7.983 4.032c-1.873 2.647-2.81 6.231-2.81 10.711s0.937 8.064 2.81 10.752c1.914 2.647 4.561 3.991 7.983 3.991s6.068-1.344 7.942-3.991zM208.024 23.674c-1.385-2.077-2.077-5.050-2.077-8.838s0.692-6.761 2.077-8.838c1.425-2.077 3.38-3.136 5.865-3.136s4.439 1.059 5.824 3.136c1.425 2.077 2.118 5.050 2.118 8.838s-0.692 6.761-2.118 8.838c-1.385 2.077-3.34 3.136-5.824 3.136s-4.439-1.059-5.865-3.136zM246.068 29.091v-2.769h-14.051l8.145-8.105c3.38-3.38 5.295-6.272 5.295-9.571 0-2.647-0.855-4.724-2.607-6.231-1.711-1.548-3.706-2.321-5.987-2.321-3.747 0-7.005 1.833-8.797 5.376l2.403 1.425c1.344-2.688 3.462-4.032 6.394-4.032 3.136 0 5.743 2.159 5.743 5.783 0 2.077-1.466 4.602-4.399 7.535l-10.263 10.345v2.566h18.124zM268.086 25.588c1.914-2.688 2.851-6.272 2.851-10.752s-0.937-8.064-2.851-10.711c-1.873-2.688-4.521-4.032-7.942-4.032s-6.068 1.344-7.983 4.032c-1.873 2.647-2.81 6.231-2.81 10.711s0.937 8.064 2.81 10.752c1.914 2.647 4.561 3.991 7.983 3.991s6.068-1.344 7.942-3.991zM254.28 23.674c-1.385-2.077-2.077-5.050-2.077-8.838s0.692-6.761 2.077-8.838c1.425-2.077 3.38-3.136 5.865-3.136s4.439 1.059 5.824 3.136c1.425 2.077 2.118 5.050 2.118 8.838s-0.692 6.761-2.118 8.838c-1.385 2.077-3.34 3.136-5.824 3.136s-4.439-1.059-5.865-3.136z"></path>
</symbol>
<symbol id="icon-link" viewBox="0 0 246 32">
<path d="M0.572 0.492v24.123h2.412v-8.96h6.203c2.171 0 3.963-0.724 5.41-2.171s2.171-3.239 2.171-5.41-0.724-3.963-2.171-5.41c-1.447-1.447-3.239-2.171-5.41-2.171h-8.615zM2.984 13.381v-10.614h6.203c1.482 0 2.722 0.517 3.687 1.516 0.999 0.999 1.482 2.24 1.482 3.791s-0.482 2.826-1.482 3.825c-0.965 0.999-2.206 1.482-3.687 1.482h-6.203zM22.492 7.385h-2.274v17.231h2.274v-9.58c0-3.963 2.309-5.721 5.445-5.721v-2.206c-2.585 0-4.377 1.034-5.445 3.136v-2.86zM33.363 3.249c0.655-0.655 0.655-1.689 0-2.343s-1.689-0.655-2.343 0c-0.655 0.655-0.655 1.689 0 2.343s1.689 0.655 2.343 0zM33.328 24.615v-17.231h-2.274v17.231h2.274zM44.53 22.238l-6.031-14.853h-2.412l7.065 17.231h2.757l7.065-17.231h-2.412l-6.031 14.853zM69.868 10.762c-1.585-2.516-3.894-3.791-6.961-3.791-2.447 0-4.549 0.862-6.306 2.619-1.723 1.758-2.585 3.894-2.585 6.41s0.862 4.652 2.585 6.41c1.758 1.758 3.86 2.619 6.306 2.619 3.067 0 5.376-1.275 6.961-3.791v3.377h2.274v-17.231h-2.274v3.377zM58.254 20.859c-1.31-1.344-1.964-2.964-1.964-4.859s0.655-3.515 1.964-4.825c1.31-1.344 2.929-1.999 4.825-1.999s3.515 0.655 4.825 1.999c1.31 1.31 1.964 2.929 1.964 4.825s-0.655 3.515-1.964 4.859c-1.31 1.31-2.929 1.964-4.825 1.964s-3.515-0.655-4.825-1.964zM84.988 25.029c3.343 0 6.306-1.723 7.719-4.48l-1.895-1.103c-1.137 2.068-3.239 3.377-5.824 3.377-1.895 0-3.515-0.655-4.825-1.964-1.31-1.344-1.964-2.964-1.964-4.859s0.655-3.515 1.964-4.825c1.31-1.344 2.929-1.999 4.825-1.999 2.585 0 4.756 1.31 5.686 3.377l1.861-1.068c-1.241-2.757-4.135-4.514-7.547-4.514-2.585 0-4.756 0.862-6.479 2.619-1.723 1.723-2.585 3.86-2.585 6.41s0.862 4.687 2.585 6.444c1.723 1.723 3.894 2.585 6.479 2.585zM102.796 21.824l-6.479-14.439h-2.412l7.719 17.334-0.448 1.068c-1.068 2.619-2.654 3.825-4.721 3.584v2.137c3.033 0.241 5.617-1.895 6.961-5.307l7.375-18.816h-2.412l-5.583 14.439zM143.177 15.070v-2.206h-20.677v2.206h20.677zM155.23 0.492v2.274h7.409v21.849h2.412v-21.849h7.409v-2.274h-17.231zM180.428 6.971c-2.654 0-4.79 0.862-6.479 2.585s-2.516 3.86-2.516 6.444c0 2.619 0.862 4.79 2.55 6.479s3.894 2.55 6.617 2.55c3.343 0 6.065-1.516 7.582-3.963l-1.999-1.172c-0.965 1.758-2.929 2.929-5.548 2.929-3.687 0-6.41-2.206-6.858-5.686h15.129c0.034-0.448 0.069-0.827 0.069-1.068 0-2.447-0.793-4.583-2.378-6.375-1.551-1.826-3.618-2.722-6.169-2.722zM180.428 9.177c1.551 0 2.929 0.517 4.101 1.516s1.861 2.412 2.102 4.239h-12.854c0.448-3.412 3.067-5.755 6.651-5.755zM194.867 7.385h-2.274v17.231h2.274v-9.58c0-3.963 2.309-5.721 5.445-5.721v-2.206c-2.585 0-4.377 1.034-5.445 3.136v-2.86zM221.797 6.971c-2.481 0-4.342 1.034-5.583 3.136-0.999-2.102-2.757-3.136-5.238-3.136-2.274 0-4.032 0.965-5.273 2.929v-2.516h-2.274v17.231h2.274v-9.546c0-3.998 2.206-5.893 4.962-5.893 2.481 0 4.032 1.654 4.032 4.687v10.752h2.274v-9.546c0-4.032 1.93-5.893 4.79-5.893 2.516 0 4.204 1.689 4.204 4.687v10.752h2.274v-10.752c0-4.239-2.585-6.892-6.444-6.892zM234.433 11.899c0-1.758 1.654-2.722 3.618-2.722 2.102 0 3.481 0.793 4.135 2.412l1.895-1.103c-0.999-2.171-3.239-3.515-6.031-3.515-1.689 0-3.102 0.482-4.239 1.413-1.103 0.93-1.654 2.102-1.654 3.515 0 3.722 3.618 4.514 6.513 5.238 1.964 0.517 3.55 1.378 3.55 2.929 0 1.895-1.723 2.757-3.963 2.757-2.309 0-4.066-1.103-4.721-2.895l-1.93 1.137c0.93 2.343 3.343 3.963 6.651 3.963 1.826 0 3.343-0.448 4.48-1.378 1.172-0.93 1.758-2.102 1.758-3.584 0-3.722-3.618-4.514-6.513-5.238-1.964-0.517-3.55-1.378-3.55-2.929z"></path>
</symbol>
</defs>
</svg>
